<mxfile host="65bd71144e">
    <diagram id="oP7z38z0w5l5nAHFG-jv" name="Page-1">
        <mxGraphModel dx="1958" dy="792" grid="1" gridSize="10" guides="1" tooltips="1" connect="1" arrows="1" fold="1" page="1" pageScale="1" pageWidth="850" pageHeight="1100" math="0" shadow="0">
            <root>
                <mxCell id="0"/>
                <mxCell id="1" parent="0"/>
                <mxCell id="4" value="" style="edgeStyle=none;html=1;fontColor=#000000;" edge="1" parent="1" source="2" target="3">
                    <mxGeometry relative="1" as="geometry"/>
                </mxCell>
                <mxCell id="6" value="" style="edgeStyle=none;html=1;fontColor=#000000;entryX=0;entryY=0;entryDx=0;entryDy=0;" edge="1" parent="1" source="2" target="5">
                    <mxGeometry relative="1" as="geometry"/>
                </mxCell>
                <mxCell id="2" value="App&lt;br&gt;&lt;span style=&quot;font-weight: normal;&quot;&gt;- Two API parents rendered&lt;/span&gt;" style="text;strokeColor=#36393d;align=center;fillColor=#eeeeee;html=1;verticalAlign=middle;whiteSpace=wrap;rounded=1;fontColor=#000000;fontStyle=1" vertex="1" parent="1">
                    <mxGeometry x="270" y="220" width="115" height="70" as="geometry"/>
                </mxCell>
                <mxCell id="10" value="" style="edgeStyle=none;html=1;fontColor=#000000;exitX=0;exitY=1;exitDx=0;exitDy=0;" edge="1" parent="1" source="3" target="7">
                    <mxGeometry relative="1" as="geometry"/>
                </mxCell>
                <mxCell id="12" style="edgeStyle=none;html=1;entryX=0;entryY=0;entryDx=0;entryDy=0;fontColor=#000000;exitX=0.939;exitY=1.029;exitDx=0;exitDy=0;exitPerimeter=0;" edge="1" parent="1" source="3" target="11">
                    <mxGeometry relative="1" as="geometry"/>
                </mxCell>
                <mxCell id="3" value="Photo API&lt;br&gt;&lt;span style=&quot;font-weight: normal;&quot;&gt;- Both components rendered in DIV&lt;/span&gt;" style="text;strokeColor=#36393d;align=center;fillColor=#eeeeee;html=1;verticalAlign=middle;whiteSpace=wrap;rounded=1;fontColor=#000000;fontStyle=1" vertex="1" parent="1">
                    <mxGeometry x="20" y="390" width="115" height="70" as="geometry"/>
                </mxCell>
                <mxCell id="14" value="" style="edgeStyle=none;html=1;fontColor=#000000;" edge="1" parent="1" source="5" target="13">
                    <mxGeometry relative="1" as="geometry"/>
                </mxCell>
                <mxCell id="16" style="edgeStyle=none;html=1;entryX=0;entryY=0;entryDx=0;entryDy=0;fontColor=#000000;" edge="1" parent="1" source="5" target="15">
                    <mxGeometry relative="1" as="geometry"/>
                </mxCell>
                <mxCell id="5" value="Weather API&lt;br&gt;&lt;span style=&quot;font-weight: normal;&quot;&gt;- Both components rendered&lt;/span&gt;" style="text;strokeColor=#36393d;align=center;fillColor=#eeeeee;html=1;verticalAlign=middle;whiteSpace=wrap;rounded=1;fontColor=#000000;fontStyle=1" vertex="1" parent="1">
                    <mxGeometry x="500" y="400" width="115" height="70" as="geometry"/>
                </mxCell>
                <mxCell id="7" value="API component&lt;br&gt;&lt;span style=&quot;font-weight: normal;&quot;&gt;- Fetch request&lt;/span&gt;&lt;br&gt;&lt;span style=&quot;font-weight: normal;&quot;&gt;- Populate the DIV&lt;/span&gt;" style="text;strokeColor=#36393d;align=center;fillColor=#eeeeee;html=1;verticalAlign=middle;whiteSpace=wrap;rounded=1;fontColor=#000000;fontStyle=1" vertex="1" parent="1">
                    <mxGeometry x="-130" y="540" width="115" height="70" as="geometry"/>
                </mxCell>
                <mxCell id="11" value="Div component to display images&lt;br&gt;&lt;span style=&quot;font-weight: normal;&quot;&gt;- Img element&lt;/span&gt;&lt;br&gt;&lt;span style=&quot;font-weight: normal;&quot;&gt;- Carousel left/right function&lt;/span&gt;" style="text;strokeColor=#36393d;align=center;fillColor=#eeeeee;html=1;verticalAlign=middle;whiteSpace=wrap;rounded=1;fontColor=#000000;fontStyle=1" vertex="1" parent="1">
                    <mxGeometry x="180" y="540" width="115" height="70" as="geometry"/>
                </mxCell>
                <mxCell id="13" value="&lt;b&gt;API component&lt;br&gt;&lt;/b&gt;- Fetch request&lt;br&gt;- Populate div component" style="text;strokeColor=#36393d;align=center;fillColor=#eeeeee;html=1;verticalAlign=middle;whiteSpace=wrap;rounded=1;fontColor=#000000;fontStyle=0" vertex="1" parent="1">
                    <mxGeometry x="350" y="540" width="115" height="70" as="geometry"/>
                </mxCell>
                <mxCell id="15" value="Div component for the weather widget&lt;br&gt;&lt;span style=&quot;font-weight: normal;&quot;&gt;- Image, text&lt;/span&gt;" style="text;strokeColor=#36393d;align=center;fillColor=#eeeeee;html=1;verticalAlign=middle;whiteSpace=wrap;rounded=1;fontColor=#000000;fontStyle=1" vertex="1" parent="1">
                    <mxGeometry x="660" y="540" width="115" height="70" as="geometry"/>
                </mxCell>
            </root>
        </mxGraphModel>
    </diagram>
</mxfile>